<svg xmlns="http://www.w3.org/2000/svg" viewBox="0 0 26 26" enable-background="new 0 0 26 26" style="fill: rgb(46, 204, 113);">
    <path d="M 13 0 C 5.8321429 0 0 5.8321429 0 13 C 0 20.167857 5.8321429 26 13 26 C 20.167857 26 26 20.167857 26 13 C 26 5.8321429 20.167857 0 13 0 z M 13 2 C 19.086977 2 24 6.9130231 24 13 C 24 15.861182 22.907709 18.452155 21.125 20.40625 C 20.373755 19.027539 18.16875 17.89375 15.8125 17.40625 C 15.8125 17.40625 14.6875 17.1 15.1875 16 C 15.8875 15.1 16.3125 14.1125 16.3125 13.8125 C 16.3125 13.8125 17.30625 13.0125 17.40625 11.8125 C 17.50625 10.7125 17.1875 10.59375 17.1875 10.59375 C 17.5875 9.29375 17.69375 4.4 14.59375 5 C 14.09375 4 10.8125 3.20625 9.3125 5.90625 C 8.6125 7.20625 8.3 9.1 9 10.5 C 9 10.6 8.7875 10.39375 8.6875 11.09375 C 8.6875 11.79375 9.0125 12.7875 9.3125 13.1875 C 9.4125 13.3875 9.6125 13.49375 9.8125 13.59375 C 9.8125 13.59375 10.00625 14.80625 10.90625 15.90625 C 11.10625 16.80625 10.1875 17.3125 10.1875 17.3125 C 7.75 17.8 5.5353516 18.933789 4.78125 20.3125 C 3.0509759 18.369796 2 15.81371 2 13 C 2 6.9130231 6.9130231 2 13 2 z"/>
</svg>