<svg xmlns="http://www.w3.org/2000/svg" viewBox="0 0 24 24" enable-background="new 0 0 24 24" style="fill: rgb(189, 195, 199);">
    <path d="M12,5.11l1.544,3.631l0.47,1.104l1.195,0.105l3.931,0.346l-2.976,2.592l-0.905,0.788l0.269,1.169 l0.885,3.846l-3.384-2.03L12,16.044l-1.029,0.617l-3.384,2.03l0.885-3.846l0.269-1.169l-0.905-0.788L4.86,10.298l3.931-0.346 l1.195-0.105l0.47-1.104L12,5.11 M12,0L8.615,7.959L0,8.718l6.523,5.679l-1.939,8.429L12,18.377l7.416,4.45l-1.938-8.429L24,8.718 l-8.615-0.759L12,0L12,0z"/>
</svg>